<svg id="Layer_1" data-name="Layer 1" xmlns="http://www.w3.org/2000/svg" viewBox="0 0 300.03 89.25"><defs><style>.cls-1{fill:#f04924;}</style></defs><title>sparkplugg_logo_red</title><path class="cls-1" d="M271.91,406.62a6.3,6.3,0,0,0-.76-4.34q-1.11-1.74-4.61-3.41a33.5,33.5,0,0,1-5.85-3.46q-6.43-4.89-5.91-12.34a14.88,14.88,0,0,1,2.69-7.65,15.83,15.83,0,0,1,6.35-5.22,18.74,18.74,0,0,1,8.51-1.76q6.57,0.14,10.28,4.55T286,384.3l-10.05,0q0.39-7.21-4.61-7.31a6,6,0,0,0-4.41,1.67,7.37,7.37,0,0,0-2.23,4.48q-0.53,4.11,5.7,7t8.93,6.57a14,14,0,0,1,2.57,9.84,14.85,14.85,0,0,1-5.27,10.67,17.23,17.23,0,0,1-11.85,3.85q-7.14-.14-11.29-4.85t-3.8-12.06l10.13,0q-0.28,4.54,1.18,6.49a5.35,5.35,0,0,0,4.59,2,5.78,5.78,0,0,0,4.32-1.71A7.71,7.71,0,0,0,271.91,406.62Z" transform="translate(-249.69 -356.34)"/><path class="cls-1" d="M297.6,385.77q3.48-4.29,7.91-4.22a8.48,8.48,0,0,1,7.45,3.8q2.46,3.73,2.21,10.69a52,52,0,0,1-2.11,13.9q-1.83,5.71-5.12,8.49a11,11,0,0,1-7.79,2.6,8.28,8.28,0,0,1-7-3.83m12.34-21.26a9.1,9.1,0,0,0-.86-4.65,3.13,3.13,0,0,0-2.69-1.41,5.89,5.89,0,0,0-4.75,2.57l-2.89,18.44c0.75,1.53,1.79,1.85,3.66,1.95q5.41,0.28,6.68-8.42l0.77-7.18Z" transform="translate(-249.69 -356.34)"/><path class="cls-1" d="M333.76,420.33a13.1,13.1,0,0,1-.28-3,9.63,9.63,0,0,1-7.38,3.69,8.94,8.94,0,0,1-7-3.23,11,11,0,0,1-2.44-7.87,12.21,12.21,0,0,1,4.71-9.47q4.39-3.43,11.81-3.43H336l0.46-3.09,0.11-1.58q0-3.06-2.46-3.06-3.41-.11-4.15,4.36l-9.67.07a11.86,11.86,0,0,1,4.5-8.84,15.27,15.27,0,0,1,10.2-3.36q5.66,0.14,8.67,3.57t2.44,9.05L343,413.51l-0.14,1.86a11.39,11.39,0,0,0,.49,4.32l0,0.63h-9.53Zm-5-7a6.3,6.3,0,0,0,4.78-2.25l1.72-8.05h-2.11a6.55,6.55,0,0,0-4.54,1.9,7.54,7.54,0,0,0-2.07,4.43l0,1.34a2.92,2.92,0,0,0,.58,1.86A2.09,2.09,0,0,0,328.77,413.3Z" transform="translate(-249.69 -356.34)"/><path class="cls-1" d="M369.56,391.86l-3.09-.35a7,7,0,0,0-6.29,3.69l-4.28,25.3h-9.74l6.49-38.21,9.11,0L361,386.44a12.71,12.71,0,0,1,3.38-3.85,6.26,6.26,0,0,1,3.55-1.11,11.61,11.61,0,0,1,3,.53Z" transform="translate(-249.69 -356.34)"/><path class="cls-1" d="M380.12,397.14l2.79-3.42,8.61-11.43h12.13L389.8,398.43l7.45,22.07H386.6l-3.87-14.69-5.88,5.58" transform="translate(-249.69 -356.34)"/><path class="cls-1" d="M409.13,369.15l16.42,0a13.55,13.55,0,0,1,10.53,4.8q3.81,4.59,3.22,11.83a17.82,17.82,0,0,1-5.7,12,18.24,18.24,0,0,1-12.73,4.52l-7.38,0m1.48-8.61,6.5,0.07a7,7,0,0,0,5.84-2.9,12.13,12.13,0,0,0,2-7.61,6.6,6.6,0,0,0-1.16-3.87,4,4,0,0,0-3-1.58l-7.35-.07Z" transform="translate(-249.69 -356.34)"/><path class="cls-1" d="M469.1,416.85q-3.59,4.29-8.37,4.22a7.79,7.79,0,0,1-6-2.51,11.11,11.11,0,0,1-2.6-6.77,26.14,26.14,0,0,1,0-4.89l4.11-24.61H466L461.9,407l-0.11,1.72a4.74,4.74,0,0,0,.51,2.85,2.2,2.2,0,0,0,2,1.13q2.88,0.11,5.27-2.92l4.78-27.53h9.81l-7,38.21h-9Z" transform="translate(-249.69 -356.34)"/><path class="cls-1" d="M501.93,417.12q-3.41,3.8-7.52,3.8a8.67,8.67,0,0,1-7.54-3.85q-2.55-3.78-2.48-10.46a51.72,51.72,0,0,1,.83-8.88,31.45,31.45,0,0,1,2.37-8q4-8.51,12.27-8.3a9.17,9.17,0,0,1,7.73,4.62M494,406.48q0,6,3.83,6.1a6.47,6.47,0,0,0,4.82-2.19l3.27-18.34a4.56,4.56,0,0,0-3.87-2.43q-6.19-.32-7.45,10A67.63,67.63,0,0,0,494,406.48Z" transform="translate(-249.69 -356.34)"/><path class="cls-1" d="M532.28,381.59a8.19,8.19,0,0,1,7.38,4.15l1.2-3.48,8.86,0-6.47,38q-1,7.42-5.68,11.32a16.81,16.81,0,0,1-11.72,3.69,17.64,17.64,0,0,1-6.12-1.27,14.17,14.17,0,0,1-5.06-3.3l4-6.82a9.76,9.76,0,0,0,7.28,3.45q6.33,0.25,7.73-7l0.7-3.16q-3.41,3.8-7.52,3.8a8.67,8.67,0,0,1-7.54-3.85q-2.55-3.78-2.48-10.46a51.72,51.72,0,0,1,.83-8.88,31.45,31.45,0,0,1,2.37-8Q524,381.38,532.28,381.59Zm-5.87,25q0,6,3.83,6.1a6.47,6.47,0,0,0,4.82-2.19l3.27-18.34a4.56,4.56,0,0,0-3.87-2.43q-6.19-.32-7.45,10A67.63,67.63,0,0,0,526.41,406.64Z" transform="translate(-249.69 -356.34)"/><path class="cls-1" d="M292.34,424.23L292,427.45c-0.62,4.86,1.22,7.52,5.16,9,3.14,1.2,6.11,1,9.46,1.12l0.15,8a47,47,0,0,1-5.85-.37,28.75,28.75,0,0,1-6.19-1.14,16.81,16.81,0,0,1-10-7.18q-3.2-5.17-1.84-12.53l6.43-42.12h9.44l-1.62,10.41" transform="translate(-249.69 -356.34)"/><path class="cls-1" d="M371,396l1.43-8.26,8.63,4.81-6.47,38q-1,7.42-5.68,11.32a16.81,16.81,0,0,1-11.72,3.69c-2.06,0-48.43,0-50.43,0-2.5,0-.08-2.66-0.08-4.23l-0.07-3.73c2.13,0,47.75-.07,50.66,0q6.33,0.25,7.73-7l0.7-3.16" transform="translate(-249.69 -356.34)"/><path class="cls-1" d="M381.09,392.52l-8.63-4.81,2.88-16.49q1.1-7.41,5.8-11.26c3.13-2.57,7.05-3.48,11.76-3.56,2.06,0,6.22,0,8.47,0H418.5l-0.69,8c-2.14,0-22.16.13-25.06,0q-6.33-.31-7.81,6.88l-0.74,3.16" transform="translate(-249.69 -356.34)"/><path class="cls-1" d="M507.59,386.05l0.93-3.88,7.86,0-7.54,48.3q-1,7.42-5.68,11.32a16.81,16.81,0,0,1-11.72,3.69c-2.06,0-4.48.05-6.64,0.05H451.33V437.5c4,0,37.27,0,40.17.08q6.33,0.25,7.73-7l0.7-3.16" transform="translate(-249.69 -356.34)"/><path class="cls-1" d="M436.89,424.33l7.47-50.62c0.63-4.85-1-8-5.13-9.05-2.82-.73-18.79-0.33-21.42-0.33l0.69-8c1.86,0,14.82.11,17,0a17.64,17.64,0,0,1,6.2.74,16.81,16.81,0,0,1,10,7.21q3.18,5.18,1.8,12.54l-7.11,47.48" transform="translate(-249.69 -356.34)"/><path class="cls-1" d="M413.49,402.33l-4.25,25.86c-0.64,4.85.89,8.73,5.09,9.07,3,0.24,10.75.24,37,.24v8.08c-2,0-31.12-.12-33.28,0a17.55,17.55,0,0,1-6.18-.76,16.77,16.77,0,0,1-9.91-7.24q-3.16-5.19-1.76-12.54l8.92-55.88" transform="translate(-249.69 -356.34)"/><path class="cls-1" d="M397.19,359.94" transform="translate(-249.69 -356.34)"/><path class="cls-1" d="M401.88,359.48" transform="translate(-249.69 -356.34)"/><path class="cls-1" d="M401.38,356.38" transform="translate(-249.69 -356.34)"/><path class="cls-1" d="M399.05,360" transform="translate(-249.69 -356.34)"/><path class="cls-1" d="M399.68,375.37" transform="translate(-249.69 -356.34)"/><path class="cls-1" d="M400.5,355.4" transform="translate(-249.69 -356.34)"/><path class="cls-1" d="M398.11,357.2" transform="translate(-249.69 -356.34)"/><path class="cls-1" d="M399.61,354.81" transform="translate(-249.69 -356.34)"/></svg>